<svg xmlns="http://www.w3.org/2000/svg" width="725.919" height="745.63" viewBox="0 0 725.919 745.63">
  <g id="aachenrheinland" transform="translate(-213.778 -163.56)">
    <path id="Path_24" data-name="Path 24" d="M576.73,357.66c-37.2,29-73.9,57.61-110.59,86.22-32.97,25.71-65.83,51.53-99,77-4.52,3.47-5.01,7.21-5.01,11.94q.09,137.85.03,275.7c0,15.43-11.64,24.55-25,19.65-7.4-2.72-10.92-8.29-11.85-15.51a57.456,57.456,0,0,1-.1-7.31c0-93.8.15-187.6-.2-281.39-.04-11.11,3.73-18.7,12.74-25.67q108.105-83.7,215.61-168.11c2.34-1.83,4.96-4.97,5.02-7.55.41-20.58.23-41.17.23-63.36-10.52,0-20.61.4-30.65-.12-8.7-.45-14.49-6.39-15.6-14.54-1.15-8.38,2.66-15.47,10.49-18.42a27.776,27.776,0,0,1,9.09-1.27c8.48-.16,16.97-.06,26.68-.06,0-10.34-.03-20.25.01-30.16.05-12.08,7.45-20.19,18.32-20.14,10.79.05,18.45,8.25,18.61,20.15.12,9.71.03,19.43.03,30.14,9.64,0,18.63-.06,27.62.02,11.04.09,18.5,6.88,18.67,16.85.17,9.88-7.13,17.31-17.98,17.69-9.02.32-18.06.07-28.3.07,0,12.88-.07,24.97.02,37.06.07,10.01-2.75,21.44,1.38,29.64s15.27,13.2,23.39,19.54q99.2,77.43,198.45,154.77c6.4,4.98,9.53,10.65,9.51,18.78-.2,96.78-.38,193.56.15,290.34.08,14.46-13.82,23.39-25.29,18.47-8.21-3.52-11.38-9.72-11.35-18.22.15-47.17.07-94.34.07-141.51,0-45.27-.09-90.54.12-135.82.03-5.39-1.69-8.76-6.12-12.19Q682.85,440.33,580.12,360C579.27,359.33,578.33,358.76,576.73,357.66Z" fill="#515151" stroke="#515151" stroke-linejoin="round" stroke-miterlimit="10" stroke-width="22"/>
    <path id="Path_25" data-name="Path 25" d="M576.34,898.13q-164.37,0-328.75.06c-7.47.01-14.16-1.21-18.95-7.14-8.55-10.59-2.14-25.64,12.01-28.07a60.635,60.635,0,0,1,10.19-.4q326.19-.03,652.39,0a69.3,69.3,0,0,1,9.35.28c10.28,1.43,16.62,8.92,16.08,18.69-.5,9.15-7.61,15.87-17.62,16.54-2.54.17-5.11.04-7.66.04Z" fill="#515151" stroke="#515151" stroke-linejoin="round" stroke-miterlimit="10" stroke-width="22"/>
    <path id="Path_26" data-name="Path 26" d="M643.66,750.68c0,19.79.06,39.58-.02,59.37-.05,12.22-7.11,19.34-19.88,19.42q-46.845.285-93.69,0c-11.79-.06-19.58-6.52-19.62-17.08-.15-42.01-.37-84.03.5-126.02.54-26.1,27.4-59.29,72.02-56.69,31.38,1.83,60.03,29.42,60.59,60.82.36,20.05.07,40.12.07,60.18Zm-37.27,43.28c0-35.71.29-70.61-.18-105.5-.14-10.24-10.4-20.06-21.34-22.81-20.04-5.03-38.14,9.06-38.26,30.16-.18,30.87-.06,61.75-.02,92.62a48.647,48.647,0,0,0,.64,5.53Z" fill="#515151" stroke="#515151" stroke-linejoin="round" stroke-miterlimit="10" stroke-width="22"/>
  </g>
</svg>
