<svg xmlns="http://www.w3.org/2000/svg" width="429.91" height="454.81" viewBox="0 0 429.91 454.81">
  <g id="aachenyehyang" transform="translate(-68.51 -56.06)">
    <path id="Path_27" data-name="Path 27" d="M283.47,485.97c-118.53,0-214.96-96.43-214.96-214.95S164.94,56.06,283.47,56.06s214.95,96.43,214.95,214.96S401.99,485.97,283.47,485.97m0-393.7c-98.57,0-178.76,80.19-178.76,178.76S184.9,449.78,283.47,449.78s178.75-80.19,178.75-178.75S382.03,92.27,283.47,92.27" fill="#515151"/>
    <rect id="Rectangle_4" data-name="Rectangle 4" width="36.2" height="360.9" transform="translate(259.71 149.97)" fill="#515151"/>
    <rect id="Rectangle_5" data-name="Rectangle 5" width="36.2" height="190.07" transform="translate(324.2 320.8)" fill="#515151"/>
    <rect id="Rectangle_6" data-name="Rectangle 6" width="36.2" height="89.37" transform="translate(386.42 421.5)" fill="#515151"/>
    <rect id="Rectangle_7" data-name="Rectangle 7" width="36.2" height="16.97" transform="translate(136.39 493.9)" fill="#515151"/>
    <rect id="Rectangle_8" data-name="Rectangle 8" width="36.2" height="190.07" transform="translate(197.48 320.8)" fill="#515151"/>
    <rect id="Rectangle_9" data-name="Rectangle 9" width="36.2" height="95.03" transform="translate(136.39 320.8)" fill="#515151"/>
    <rect id="Rectangle_10" data-name="Rectangle 10" width="174.22" height="36.2" transform="translate(191.82 215.58)" fill="#515151"/>
  </g>
</svg>
