<svg xmlns="http://www.w3.org/2000/svg" width="1070.11" height="1049.73" viewBox="0 0 1070.11 1049.73">
  <g id="info" transform="translate(-35.222 -45.508)">
    <path id="Path_8" data-name="Path 8" d="M726.6,900.45c6.539.91,12.627,1.62,19.015-.48q137.84-45.2,275.769-90.06a210.073,210.073,0,0,1,26.338-7.06c13.079-2.45,25.384-.29,35.992,8.57,10.256,8.56,17.649,18.93,20.442,32.06,3.908,18.36-2.069,33.77-15.51,46.32a96.216,96.216,0,0,1-15.861,11.58q-150.21,91.32-300.521,182.47c-6.841,4.16-14.013,6.96-22.19,6.58-1.818-.09-3.646.09-5.475.09q-214.218-.435-428.446-.89c-14.686-.03-28.4-4.31-41.778-9.77a153.867,153.867,0,0,1-42.812-25.96,1.758,1.758,0,0,0-.733-.29c-1.637,3.35-2.983,6.84-4.962,9.94-2.622,4.11-6.74,5.96-11.632,6.03-1.095.02-2.19.02-3.285.02q-78.081-.03-156.152-.11a41.232,41.232,0,0,1-9.2-.99c-5.495-1.26-8.85-4.87-9.854-10.43a33.751,33.751,0,0,1-.462-5.96q-.075-131.445,0-262.9a33.822,33.822,0,0,1,2.32-11.62c1.868-4.97,5.957-7.66,11.391-8.02,1.276-.09,2.551-.09,3.837-.1q81.079-.435,162.169-.85a38.89,38.89,0,0,1,6.017.18,12.956,12.956,0,0,1,11.321,12.17c.1,1.26.01,2.53.01,4.68a44.379,44.379,0,0,0,3.827-2.52c31.7-26.6,68.538-41.85,109.191-48.03,37.428-5.69,74.214-2.69,109.924,10.52a182.723,182.723,0,0,1,35.56,17.91c10.859,7,21.657,14.1,33.691,19.12,12.1,5.05,24.872,6.88,37.659,8.88,19.749,3.09,39.638,3,59.528,3.31,23.255.37,45.063,6.27,64.952,18.46,16.394,10.05,29.372,23.25,37.077,41.11,5.876,13.62,7.343,27.64,3.717,42.1C727.16,897.71,726.929,898.91,726.6,900.45Zm-28.719-.75c6.569-11.42,5.917-26.15.743-36.71a57.821,57.821,0,0,0-14.144-18.55c-16.745-14.45-36.293-21.92-58.433-22.65-8.739-.29-17.489-.67-26.228-.78a315.65,315.65,0,0,1-41.426-3.37c-15.168-2.21-30.467-4.17-44.359-11.04-11.411-5.64-22.572-11.86-33.41-18.53-12.617-7.77-25.475-14.9-39.588-19.54-37.82-12.45-76.012-12.67-114.294-2.62-34.646,9.09-64.912,25.79-89.01,52.68a5.744,5.744,0,0,1-1.557,1.52c-3.837,1.78-3.938,5-3.938,8.64q-.015,86.985-.191,173.97c-.02,13.79.05,14.04,9.432,24.15a86.314,86.314,0,0,0,6.67,6.46,127.909,127.909,0,0,0,40.783,23.93c8.548,3.11,17.217,5.93,26.519,5.95q209.818.48,419.636,1.07a62.933,62.933,0,0,0,34.184-9.34q144.439-88.11,289.18-175.77a57.3,57.3,0,0,0,10.778-8.32,24.072,24.072,0,0,0,4.259-28.67,25.129,25.129,0,0,0-26.881-12.36,63.316,63.316,0,0,0-7.393,1.95q-39.477,12.84-78.945,25.76-104.9,34.26-209.833,68.43a35.724,35.724,0,0,1-12.305,1.75c-26.439-1.18-52.847-2.77-79.276-4.05-26.328-1.28-52.586-.67-78.372,5.45-20.593,4.88-40.351,11.63-54.977,28.24-2.672,3.04-6.439,4.05-10.477,3.63-10.075-1.05-15.339-12.08-9.272-20.41a67.733,67.733,0,0,1,12.255-12.35c12.5-10.11,27.062-16.35,42.33-21.02,23.907-7.32,48.5-10.24,73.4-10.38,12.215-.07,24.43.78,36.645,1.34C679.646,898.57,688.908,899.19,697.878,899.7ZM62.322,795.89c-1.085,10.06-.492,242.85.643,247.06H204.511c1.426-5.78,1.758-243.23.251-247.97Q133.838,795.43,62.322,795.89Z" transform="translate(0 4.718)"/>
    <path id="Path_9" data-name="Path 9" d="M457.97,357.4A313,313,0,0,1,729.76,48.34a298.6,298.6,0,0,1,66.33-1.74c114.9,10.08,211.48,79.94,257.87,180.9A312.09,312.09,0,0,1,753.82,669.01c-11.22-.57-22.37-2.46-33.57-3.59a10.973,10.973,0,0,0-5.7.74c-16.75,8.3-33.4,16.8-50.11,25.18-14.77,7.41-29.59,14.71-44.38,22.08-3.28,1.63-6.56,3.19-10.37,2.72-9.72-1.19-13.16-5.02-15.14-12.52-1.81-6.83-2.94-13.85-4.23-20.81-4.85-26.06-9.7-52.13-14.38-78.22-.62-3.43-2.66-5.38-5.05-7.37A311.254,311.254,0,0,1,463.44,412.1c-1.15-6.62-2.35-13.25-2.97-19.93C459.42,380.61,458.79,369,457.97,357.4ZM617.73,684.94c2.64-1.22,4.62-2.07,6.55-3.03q35.13-17.43,70.25-34.85c5.85-2.89,11.8-5.6,17.79-8.19a10.636,10.636,0,0,1,5.2-.77c11.17,1.29,22.28,3.12,33.47,4.1,31.07,2.72,61.7-.49,91.76-8.48,60.56-16.08,110.8-48.46,150.1-97.26,39.83-49.45,60.62-106.28,62.93-169.66,1.6-43.89-6.87-85.98-24.84-126.13A285.127,285.127,0,0,0,802.69,73.84a280.742,280.742,0,0,0-86.81,3.39C670,86.3,628.58,105.29,592.1,134.6c-82.57,66.34-122.13,171.16-101.86,277.43,10.29,53.95,34.76,101,72.32,141.17a280.9,280.9,0,0,0,35.21,31.71c2,1.52,3.93,2.84,4.37,5.84,2.81,19.4,5.71,38.79,8.86,58.13C612.92,660.69,615.37,672.42,617.73,684.94Z" transform="translate(4.809)"/>
    <path id="Path_10" data-name="Path 10" d="M823.93,425.99q0,61.08-.01,122.17a44.489,44.489,0,0,1-.16,4.9,12.641,12.641,0,0,1-11.8,11.54c-2.35.21-4.72.19-7.08.21q-32.445.345-64.9.67a37.905,37.905,0,0,1-5.44-.18c-6.57-.91-10.91-5.08-11.91-11.64a56.891,56.891,0,0,1-.36-8.16q-.87-119.985-1.7-239.98c-.01-1.27-.05-2.55.03-3.82.52-8.69,5.46-13.57,14.23-14.06,1.63-.09,3.27-.08,4.91-.08l66.54-.24c.73,0,1.46-.01,2.18.01,8.07.26,13.19,5.09,13.77,13.21.24,3.44.14,6.91.16,10.36q.375,57.54.74,115.08C823.39,425.99,823.66,425.99,823.93,425.99Zm-76.2-112c-1.09,7.74.76,220.76,1.8,224.23h48c-.55-75.1-1.09-149.56-1.63-224.23Z" transform="translate(3.426 1.488)"/>
    <path id="Path_11" data-name="Path 11" d="M772.61,249.24c-27.55,0-50.35-22.74-50.02-50.49.34-29.21,23.39-48.16,46.71-49.87a50.341,50.341,0,0,1,53.9,50.37C823.28,226.9,800.44,249.24,772.61,249.24Zm24.02-50.6a23.745,23.745,0,1,0-23.54,24.27A23.935,23.935,0,0,0,796.63,198.64Z" transform="translate(3.427)"/>
  </g>
</svg>
