<svg xmlns="http://www.w3.org/2000/svg" width="1030.629" height="1049.732" viewBox="0 0 1030.629 1049.732">
  <g id="job" transform="translate(-60.597 -43.308)">
    <path id="Path_12" data-name="Path 12" d="M591.36,796.32c10.35,10.56,20.51,20.93,30.83,31.46,1.62-1.39,2.94-2.59,4.32-3.71,5.22-4.23,11.14-4.58,16.57-.69a72.283,72.283,0,0,1,8.33,7q69.45,67.845,138.79,135.79c5.31,5.2,10.75,10.39,15.29,16.24,9.86,12.71,15.1,27.22,14.92,43.49a63.069,63.069,0,0,1-11.71,36.24c-.73,1.04-1.42,2.1-2.11,3.17-.06.1.07.32.29,1.13h5.55q103.08-.015,206.17-.03c25.65-.01,45.26-19.86,45.32-45.65.21-82.71.64-165.41.71-248.12q.225-249.525.16-499.06v-7.67c-2.04-.09-3.78-.23-5.52-.25-43.27-.41-86.54-.71-129.8-1.32a79.26,79.26,0,0,1-19.34-2.61c-21.01-5.65-35.46-23.47-37.34-45.4-.5-5.78-.76-11.6-.77-17.41q-.12-60.81-.09-121.63V70.2h-7.42q-223.08-.15-446.16-.31c-22.54-.02-45.09-.08-67.63-.05-7.81.01-15.63.04-23.43.41-24.09,1.16-40.59,17.17-42.61,41.32-.53,6.33-.79,12.71-.77,19.06q.24,73.365.61,146.72a33.131,33.131,0,0,1-.73,8.09,12.571,12.571,0,0,1-13.32,9.74,12.722,12.722,0,0,1-12.03-10.7,37.265,37.265,0,0,1-.49-6.51q-.27-78.81-.45-157.63a88.726,88.726,0,0,1,4.76-29.47c8.61-24.71,26-39.77,51.4-45.35a98.93,98.93,0,0,1,21.09-2.21q182.175-.03,364.34.24,90.81.09,181.63.18c2.54,0,5.09.11,7.62.24a12.742,12.742,0,0,1,8.6,4.18q90.735,92.07,181.48,184.12c2.93,2.97,5.63,6.17,8.41,9.29a16.115,16.115,0,0,1,4.37,11.96c-.06,1.09,0,2.18,0,3.27q-.12,382.065-.25,764.14c-.01,31.41-23.03,61.87-52.98,69.62a72.2,72.2,0,0,1-17.77,2.07q-197.175.24-394.34.22-140.985.06-281.98.2c-10.07.02-19.91-.64-29.55-3.69-30.77-9.74-52.58-36.34-54.68-68.54-1.22-18.65-.67-37.42-.86-56.14a16.137,16.137,0,0,1,.73-4.28,13.016,13.016,0,0,1,25.18-.02,31.29,31.29,0,0,1,.86,7.55c.13,15.63.41,31.27.15,46.9-.47,28.32,24.18,51.68,51.14,51.65q139.635-.135,279.26-.04,38.175,0,76.36-.01h7.2c-3.06-3.17-5.11-5.37-7.24-7.49q-43.44-43.335-86.91-86.64-20.865-20.79-41.71-41.59c-3.98-3.98-7.82-8.11-11.65-12.23-6.03-6.49-5.99-13.17.03-19.84.85-.94,1.7-1.87,2.91-3.2q-15.915-16.125-31.71-32.14c-72.31,48.37-150.69,65.09-235.46,45.62-72.13-16.57-130.05-55.68-173.09-115.95C29.67,673.77,46.4,509.25,153.75,409.02a292.632,292.632,0,0,1,382.94-15.19c61.06,48.81,96.79,112.58,108.09,189.94C654.78,652.2,638.24,732.22,591.36,796.32ZM353.51,890.29c150.38-.2,267.31-121.62,267.5-266.59.2-146.11-117.5-267.55-267.17-267.35-149.52.2-266.92,121.23-266.66,267.3A266.934,266.934,0,0,0,353.51,890.29Zm226.36,19.08c.57.6,1.41,1.54,2.3,2.43q28.77,28.7,57.54,57.37c26.65,26.56,53.16,53.25,80,79.6,12.38,12.15,27.62,16.71,44.61,12.91,20.95-4.68,30.94-22.3,29.54-39.47-.94-11.51-5.92-21.17-14.17-29.25q-69.945-68.475-139.82-137.01c-1.26-1.24-2.62-2.37-4.17-3.76C617.05,871.29,598.67,890.12,579.87,909.37Zm466.74-670.14c.17-.37.33-.75.5-1.12-49.1-49.76-98.2-99.53-148.22-150.23-.14,3.3-.3,5.21-.3,7.12q0,33.795.04,67.58c.01,13.44-.1,26.89.08,40.33a77.685,77.685,0,0,0,1.38,15.63A23.77,23.77,0,0,0,921,237.24a124.273,124.273,0,0,0,12.49.8q54.225.66,108.44,1.2C1043.49,239.24,1045.05,239.23,1046.61,239.23ZM574.15,874.95c9.25-9.03,19.11-18.66,29.26-28.56-9.48-9.75-18.95-19.6-28.55-29.15l-29.18,30.75C554.56,856.38,564.54,865.84,574.15,874.95Z"/>
    <path id="Path_13" data-name="Path 13" d="M546.54,254H399.27c-2.73,0-5.46.02-8.18-.06-9.59-.3-15.83-6.62-15.91-16.33-.08-11.27.06-22.54.05-33.82-.01-13.09-.11-26.18-.08-39.27.02-12.32,5.36-17.71,17.51-17.71q154.08-.045,308.17-.01a27.862,27.862,0,0,1,7.52.83c5.64,1.61,8.78,5.6,9.44,11.4a66.86,66.86,0,0,1,.22,7.63c.01,23.45-.25,46.91.11,70.36.19,12.35-7.68,16.86-16.69,16.83-35.09-.13-70.18.01-105.27.03q-24.81.015-49.64,0A.216.216,0,0,1,546.54,254Zm144.8-80.32c-7.04-1.19-285.15-.68-289.4.54v52.94h289.4Z"/>
    <path id="Path_14" data-name="Path 14" d="M847.39,509.78H977.12c2,0,4-.04,5.99.11a13.243,13.243,0,0,1,12.57,12.69c.22,6.57-4.99,12.47-11.92,13.4a36.328,36.328,0,0,1-4.9.14q-131.64-.06-263.28-.17a34.044,34.044,0,0,1-7.55-.73,12.9,12.9,0,0,1,.93-25.33,56.781,56.781,0,0,1,8.15-.44q65.13-.03,130.27-.02C847.39,509.56,847.39,509.67,847.39,509.78Z"/>
    <path id="Path_15" data-name="Path 15" d="M846.33,631.22H716.6c-2.18,0-4.37.07-6.54-.12a13.073,13.073,0,0,1-.52-26.02,38.09,38.09,0,0,1,4.9-.14q131.91.045,263.82.12a29.873,29.873,0,0,1,8.06.92,12.889,12.889,0,0,1-2.1,25.2,62.4,62.4,0,0,1-7.62.29q-65.145.03-130.28.01A2.271,2.271,0,0,0,846.33,631.22Z"/>
    <path id="Path_16" data-name="Path 16" d="M844.58,443.58H714.85c-2.18,0-4.37.07-6.54-.13a13.057,13.057,0,0,1-.3-26.02,39.988,39.988,0,0,1,4.9-.13q131.91.045,263.82.13a29.331,29.331,0,0,1,8.05.94,12.919,12.919,0,0,1-2.31,25.19,59.446,59.446,0,0,1-7.07.27q-65.415.015-130.82.01C844.58,443.76,844.58,443.67,844.58,443.58Z"/>
    <path id="Path_17" data-name="Path 17" d="M780.55,719.77q-32.43,0-64.87-.01a54.324,54.324,0,0,1-5.99-.21,12.743,12.743,0,0,1-11.55-11.2c-.72-6.44,2.66-12.01,8.78-14a21.04,21.04,0,0,1,6.41-.94q67.05-.03,134.1.12a25,25,0,0,1,7.5,1.11,13.015,13.015,0,0,1,8.58,13.19,12.775,12.775,0,0,1-10.49,11.65,44.756,44.756,0,0,1-7.59.5q-32.43.06-64.87.02A1.835,1.835,0,0,1,780.55,719.77Z"/>
    <path id="Path_18" data-name="Path 18" d="M350.65,856.72c-132.8-1.05-234.19-107.42-233.88-234.27.31-128.4,103.37-233.46,234.08-233.28,129.15.18,233.29,103.67,233.33,233.47C584.21,752.75,480.13,855.7,350.65,856.72ZM300.7,687.52c-.65-.6-.9-.87-1.19-1.08-.73-.54-1.47-1.07-2.22-1.58-17.43-11.97-29.52-27.79-34.82-48.45a9.367,9.367,0,0,0-3.97-5.52c-8.99-6.55-13.43-15.59-13.79-26.58-.2-6.17.19-12.36.05-18.53-.09-4.14-.52-8.28-1.02-12.39-.78-6.48-2.43-12.93-2.52-19.41-.42-28.17,10.44-51.76,30.91-70.71,38.86-35.98,100.39-40.39,144.34-10.89,31.48,21.13,50.16,58.65,40.9,98.3a9.123,9.123,0,0,0-.24,3.77c1.82,8.7.99,17.4-.1,26.05-1.52,11.98-5.48,22.91-14.47,31.56a10.436,10.436,0,0,0-2.78,5.04c-4.09,19.37-14.3,34.74-30.06,46.53-2.47,1.85-5.21,3.34-7.61,5.26a5.047,5.047,0,0,0-1.92,3.44c.27,6.49.86,12.97,1.34,19.41,1.72.45,2.93.81,4.17,1.07,10.82,2.27,21.77,4.05,32.45,6.86,20.11,5.29,39.34,12.88,56.5,24.93,5,3.51,9.62,7.56,14.41,11.37,68.34-79.04,67.6-208.15-19.74-287.04a206.755,206.755,0,0,0-299.14,22.55c-73.04,89.31-52.37,206.15,2.81,265,6.69-5.03,13.07-10.45,20.05-14.97,18.5-11.98,39.09-19.01,60.38-24.11,8.43-2.02,16.98-3.5,26.02-5.34C299.84,703.93,300.26,695.81,300.7,687.52Zm-89.51,88.55c82.46,75.58,207.58,68.23,279.31-.98-24.82-22.5-55.52-30.2-87.14-36.14-4.87,11.63-13.64,18.24-24.64,22.23a84.658,84.658,0,0,1-54.03,1.64c-12.29-3.63-22.29-10.38-27.3-23.2a190.933,190.933,0,0,0-31.69,7.16c-14.47,4.38-28.49,9.88-41.01,18.54C220.1,768.5,215.93,772.27,211.19,776.07Zm58.22-192.78c.36,5.76.93,11.14.96,16.53.03,6.17,2.76,10.36,8.21,12.93,5.03,2.37,7.66,6.32,8.42,11.82,2.08,15.02,9.65,26.95,21.62,35.89,20.31,15.17,43.02,19.05,67.02,11.31,21.93-7.06,36.2-21.55,39.01-45.5a12.211,12.211,0,0,1,8.27-10.6,9.14,9.14,0,0,0,5.67-5.41c3.25-7.76,2.65-15.85,2.75-24.05-6.83-.92-13.12-1.69-19.38-2.62-15.06-2.24-30.1-4.67-45.19-6.77-3.69-.51-7.51-.08-11.43-.08-.3,1.01-.59,1.86-.79,2.72-1.6,6.82-6.09,10.67-12.8,11.66-2.97.44-6.1-.08-9.14-.36-19.51-1.78-39.06-3.3-58.27-7.44A28.074,28.074,0,0,0,269.41,583.29Zm-1.48-25.28c20.35,1.97,40.19,3.9,59.98,5.82a18.688,18.688,0,0,0,1.04-2.5c1.69-7.8,7.17-10.92,14.49-11.72a44.476,44.476,0,0,1,4.9-.1c22.81.1,45.16,4.04,67.52,7.95,5.42.95,10.88,2.51,16.36,1.53a6.372,6.372,0,0,0,.58-1.3c.14-1.08.25-2.16.31-3.25,1.18-23-7.77-41.74-25.57-55.64-28.03-21.9-59.28-24.94-92-12.3-19.17,7.41-33.71,20.53-42.37,39.5A61.055,61.055,0,0,0,267.93,558.01Zm58.69,140.36c-.58,11.8-1.08,22.64-1.67,33.48a3.561,3.561,0,0,0,2.91,3.97c5.21,1.4,10.41,3.14,15.73,3.78a53.963,53.963,0,0,0,28.17-4.01c4.61-1.99,4.81-2.43,4.49-7.39q-.54-8.13-1.24-16.26c-.33-3.94-.78-7.87-1.24-12.43C358.01,703.34,342.62,702.25,326.62,698.37Z"/>
  </g>
</svg>
