<svg xmlns="http://www.w3.org/2000/svg" width="523.89" height="787.96" viewBox="0 0 523.89 787.96">
  <g id="katholischekoreanischeMissionAachen" transform="translate(-291.04 -182.8)">
    <path id="Path_28" data-name="Path 28" d="M615.88,970.76H490.18c7.55-15.27,15.02-27.32,19.57-40.39,5.27-15.14,11.16-31.16,11.27-46.83.93-127.67.17-255.36,1.01-383.03.13-19.17-5.39-25.06-24.42-24.31-35.48,1.4-71.11,1.47-106.59.06-25.82-1.02-49.45,3.02-71.45,16.9-8.08,5.1-17.23,8.51-28.53,13.97V382.77c15.15,7.19,27.95,14.51,41.62,19.41,13.3,4.77,27.41,9.56,41.29,9.97,42.74,1.27,85.55.06,128.32.64,14.21.19,19.8-4.19,19.54-19.21-.8-45.4.26-90.83-.64-136.22-.2-9.98-4.7-20.2-8.71-29.68-6.04-14.26-13.39-27.97-21.64-44.88H615.65c-7.16,14.43-14.65,26.46-19.2,39.5-5.28,15.14-10.67,31.07-11.27,46.84-1.56,41.4-.01,82.92-.85,124.36-.3,14.92,5.16,19.48,19.46,19.3,45.4-.58,90.83.28,136.23-.57,10.06-.19,20.43-4.12,29.93-8.07,14.33-5.96,28.02-13.45,44.98-21.76V507.13c-13.31-6.51-24.74-13.77-37.22-17.8-17.09-5.52-34.86-11.37-52.55-12.15-40.73-1.78-81.59-.17-122.39-.8-13.58-.21-18.45,4.3-18.41,18.15.37,133.6.07,267.2.57,400.81.04,9.35,4.06,19.08,7.86,27.93C599.18,938.09,606.86,952.37,615.88,970.76Z" fill="#515151"/>
  </g>
</svg>
