<svg xmlns="http://www.w3.org/2000/svg" width="1081.746" height="1071.311" viewBox="0 0 1081.746 1071.311">
  <g id="Group_4" data-name="Group 4" transform="translate(-734.371 -4874)">
    <g id="Group_3" data-name="Group 3" transform="translate(746.371 4886)">
      <g id="networking">
        <circle id="Ellipse_2" data-name="Ellipse 2" cx="258.196" cy="258.196" r="258.196" transform="translate(284.413 278.224)" fill="none" stroke="#000" stroke-miterlimit="10" stroke-width="28"/>
        <circle id="Ellipse_3" data-name="Ellipse 3" cx="82.819" cy="82.819" r="82.819" transform="translate(464.103 389.315)" fill="none" stroke="#000" stroke-miterlimit="10" stroke-width="26"/>
        <path id="Path_19" data-name="Path 19" d="M721.82,700.691a118.365,118.365,0,1,0-236.73,0Z" transform="translate(-54.113 -24.008)" fill="none" stroke="#000" stroke-linecap="round" stroke-linejoin="round" stroke-miterlimit="10" stroke-width="26"/>
        <circle id="Ellipse_4" data-name="Ellipse 4" cx="132.468" cy="132.468" r="132.468" transform="translate(58.478 784.876)" fill="none" stroke="#000" stroke-miterlimit="10" stroke-width="19"/>
        <circle id="Ellipse_5" data-name="Ellipse 5" cx="42.493" cy="42.493" r="42.493" transform="translate(150.665 832.885)" fill="none" stroke="#000" stroke-miterlimit="10" stroke-width="21"/>
        <path id="Path_20" data-name="Path 20" d="M341.868,972.674a60.724,60.724,0,1,0-121.448,0Z" transform="translate(-86.739 16.626)" fill="none" stroke="#000" stroke-linecap="round" stroke-linejoin="round" stroke-miterlimit="10" stroke-width="21"/>
        <path id="Path_21" data-name="Path 21" d="M1075.265,267.539A132.468,132.468,0,1,1,942.8,135.06,132.469,132.469,0,0,1,1075.265,267.539Z" transform="translate(-14.019 -79.143)" fill="none" stroke="#000" stroke-miterlimit="10" stroke-width="17"/>
        <circle id="Ellipse_6" data-name="Ellipse 6" cx="42.493" cy="42.493" r="42.493" transform="translate(888.498 112.911)" fill="none" stroke="#000" stroke-miterlimit="10" stroke-width="20"/>
        <path id="Path_22" data-name="Path 22" d="M998.728,323.724a60.724,60.724,0,0,0-121.448,0Z" transform="translate(-5.766 -63.372)" fill="none" stroke="#000" stroke-linecap="round" stroke-linejoin="round" stroke-miterlimit="10" stroke-width="21"/>
        <line id="Line_1" data-name="Line 1" y1="93.029" x2="103.263" transform="translate(728.162 278.224)" fill="none" stroke="#000" stroke-miterlimit="10" stroke-width="24"/>
        <line id="Line_2" data-name="Line 2" y1="93.029" x2="103.263" transform="translate(255.129 715.682)" fill="none" stroke="#000" stroke-miterlimit="10" stroke-width="24"/>
        <line id="Line_3" data-name="Line 3" x2="47.975" y2="94.928" transform="translate(371.399 205.233)" fill="none" stroke="#000" stroke-miterlimit="10" stroke-width="24"/>
        <circle id="Ellipse_7" data-name="Ellipse 7" cx="112.406" cy="112.406" r="112.406" transform="translate(205.177)" fill="none" stroke="#000" stroke-miterlimit="10" stroke-width="24"/>
        <circle id="Ellipse_8" data-name="Ellipse 8" cx="112.406" cy="112.406" r="112.406" transform="translate(819.832 722.905)" fill="none" stroke="#000" stroke-miterlimit="10" stroke-width="24"/>
        <line id="Line_4" data-name="Line 4" x2="119.359" y2="61.319" transform="translate(721.175 722.905)" fill="none" stroke="#000" stroke-miterlimit="10" stroke-width="24"/>
        <line id="Line_5" data-name="Line 5" x2="61.443" y2="123.616" transform="translate(580.07 784.876)" fill="none" stroke="#000" stroke-miterlimit="10" stroke-width="24"/>
        <circle id="Ellipse_9" data-name="Ellipse 9" cx="77.034" cy="77.034" r="77.034" transform="translate(590.673 890.396)" fill="none" stroke="#000" stroke-miterlimit="10" stroke-width="24"/>
        <path id="Path_23" data-name="Path 23" d="M373.921,568.939Q285.9,541.1,197.87,513.27" transform="translate(-89.519 -32.52)" fill="none" stroke="#000" stroke-miterlimit="10" stroke-width="24"/>
        <circle id="Ellipse_10" data-name="Ellipse 10" cx="60.061" cy="60.061" r="60.061" transform="translate(0 413.814)" fill="none" stroke="#000" stroke-miterlimit="10" stroke-width="24"/>
      </g>
    </g>
  </g>
</svg>
