<svg xmlns="http://www.w3.org/2000/svg" xmlns:xlink="http://www.w3.org/1999/xlink" width="1010" height="437" viewBox="0 0 1010 437">
  <defs>
    <clipPath id="clip-Artboard_2">
      <rect width="1010" height="437"/>
    </clipPath>
  </defs>
  <g id="Artboard_2" data-name="Artboard – 2" clip-path="url(#clip-Artboard_2)">
    <path id="Path_6" data-name="Path 6" d="M-134.15,0h-71.807l-82.661-194.268V0h-65.127V-435.571h65.127v184.248l72.363-184.248H-145v3.062l-88.506,206.792Zm234.9-39.8Q100.752,0,61.23,0H-69.858Q-109.1,0-109.1-39.8V-143.613h65.127v88.784h79.6v-85.444L-94.907-263.848q-14.194-13.638-14.194-34.79v-96.855q0-40.078,39.243-40.078H61.23q39.521,0,39.521,39.521v97.412H35.625v-82.1h-79.6v78.765L86.558-178.96q14.194,13.359,14.194,35.347ZM369.331-435.571,285.835.557H220.986L137.769-435.571h65.405L251.88-136.934q.557,12.8,1.67,37.295-.278-12.8,1.67-37.295L304.2-435.571Z" transform="translate(354 436)" fill="#fff"/>
    <path id="Path_7" data-name="Path 7" d="M-92.554,0h-11.328l-2.295-14.5h-14.307L-122.778,0h-11.279V-.2l14.795-76.318h12.012Zm-15.234-24.316-5.566-34.473-5.615,34.473ZM-47.437,0H-58.765L-61.06-14.5H-75.366L-77.661,0H-88.94V-.2l14.795-76.318h12.012ZM-62.671-24.316l-5.566-34.473-5.615,34.473ZM-3.442-6.982Q-3.442,0-10.425,0H-34.253Q-41.04,0-41.04-6.982v-62.4q0-7.031,6.787-7.031h23.828q6.982,0,6.982,7.031v17.871H-14.819V-66.6H-29.614V-9.814h14.795V-25.879H-3.442ZM43.97,0H32.446V-34.277H16.968V0H5.542V-76.416H16.968v31.494H32.446V-76.416H43.97ZM84.741,0H53.052V-76.416h31.4v10.107H64.478v22.314H81.665v9.912H64.478v23.975H84.741Zm46.533,0h-10.01L102.954-48.1a28.864,28.864,0,0,1,.732,5.518V0H92.554V-76.416h10.01L120.874-29.3a28.864,28.864,0,0,1-.732-5.518v-41.6h11.133Z" transform="translate(878 436)" fill="#fff"/>
  </g>
</svg>
